<svg width="24" height="25" viewBox="0 0 24 25" fill="none" xmlns="http://www.w3.org/2000/svg">
<path d="M21.0636 0.587891H2.84643C1.2752 0.587891 0 1.86309 0 3.43432V21.6515C0 23.2227 1.2752 24.4979 2.84643 24.4979H21.0636C22.6348 24.4979 23.91 23.2227 23.91 21.6515V3.43432C23.91 1.86309 22.6348 0.587891 21.0636 0.587891ZM18.7864 9.12718H17.6479C16.4296 9.12718 15.94 9.41182 15.94 10.2657V11.9736H18.7864L18.2171 14.82H15.94V23.3593H13.0936V14.82H10.8164V11.9736H13.0936V10.2657C13.0936 7.9886 14.2321 6.28075 16.5093 6.28075C18.1602 6.28075 18.7864 6.85003 18.7864 6.85003V9.12718Z" fill="black"/>
</svg>
