<svg width="25" height="25" viewBox="0 0 25 25" fill="none" xmlns="http://www.w3.org/2000/svg">
<path d="M12.1294 0.585571C8.88202 0.585571 8.47447 0.599771 7.19903 0.657813C5.92608 0.716104 5.05718 0.917632 4.2969 1.21332C3.51046 1.51873 2.84334 1.92726 2.17871 2.59213C1.51359 3.25675 1.10505 3.92386 0.798645 4.71004C0.502205 5.47057 0.300426 6.3397 0.24313 7.61214C0.186333 8.88757 0.171387 9.29536 0.171387 12.5427C0.171387 15.7901 0.185835 16.1964 0.243629 17.4718C0.30217 18.7448 0.5037 19.6136 0.799144 20.3739C1.1048 21.1603 1.51334 21.8275 2.17822 22.4921C2.84259 23.1572 3.50971 23.5667 4.29565 23.8721C5.05643 24.1678 5.92558 24.3693 7.19828 24.4276C8.47372 24.4857 8.88102 24.4999 12.1282 24.4999C15.3758 24.4999 15.7821 24.4857 17.0576 24.4276C18.3305 24.3693 19.2004 24.1678 19.9612 23.8721C20.7474 23.5667 21.4135 23.1572 22.0779 22.4921C22.743 21.8275 23.1515 21.1603 23.4579 20.3742C23.7519 19.6136 23.9537 18.7445 24.0135 17.4721C24.0707 16.1966 24.0857 15.7901 24.0857 12.5427C24.0857 9.29536 24.0707 8.88782 24.0135 7.61239C23.9537 6.33945 23.7519 5.47057 23.4579 4.71029C23.1515 3.92386 22.743 3.25675 22.0779 2.59213C21.4127 1.92701 20.7476 1.51848 19.9604 1.21332C19.1982 0.917632 18.3288 0.716104 17.0558 0.657813C15.7804 0.599771 15.3743 0.585571 12.1259 0.585571H12.1294ZM11.0567 2.74035C11.3751 2.73985 11.7303 2.74035 12.1294 2.74035C15.322 2.74035 15.7004 2.75181 16.9612 2.8091C18.127 2.86241 18.7597 3.05721 19.1812 3.22088C19.7392 3.4376 20.1371 3.69667 20.5553 4.11517C20.9738 4.53367 21.2329 4.93225 21.4501 5.49025C21.6138 5.91124 21.8088 6.54397 21.8619 7.70979C21.9192 8.97028 21.9316 9.34892 21.9316 12.54C21.9316 15.731 21.9192 16.1097 21.8619 17.3702C21.8086 18.536 21.6138 19.1687 21.4501 19.5897C21.2334 20.1477 20.9738 20.5451 20.5553 20.9633C20.1368 21.3818 19.7395 21.6409 19.1812 21.8576C18.7602 22.022 18.127 22.2163 16.9612 22.2696C15.7007 22.3269 15.322 22.3394 12.1294 22.3394C8.93657 22.3394 8.55817 22.3269 7.29768 22.2696C6.13184 22.2158 5.4991 22.021 5.07736 21.8573C4.51935 21.6406 4.12078 21.3816 3.70227 20.9631C3.28377 20.5446 3.02469 20.147 2.80747 19.5887C2.6438 19.1677 2.44875 18.535 2.39569 17.3692C2.33839 16.1087 2.32694 15.7301 2.32694 12.537C2.32694 9.34394 2.33839 8.96729 2.39569 7.7068C2.449 6.54098 2.6438 5.90825 2.80747 5.48676C3.02419 4.92876 3.28377 4.53019 3.70227 4.11169C4.12078 3.69319 4.51935 3.43411 5.07736 3.21689C5.49885 3.05248 6.13184 2.85818 7.29768 2.80462C8.40073 2.7548 8.82821 2.73985 11.0567 2.73736V2.74035Z" fill="black"/>
<path d="M18.4864 4.69636C18.2026 4.69636 17.9251 4.78053 17.6892 4.93822C17.4532 5.0959 17.2693 5.32003 17.1607 5.58224C17.0521 5.84446 17.0237 6.13298 17.0791 6.41133C17.1345 6.68968 17.2712 6.94535 17.472 7.146C17.6727 7.34665 17.9284 7.48326 18.2068 7.53857C18.4851 7.59388 18.7737 7.56539 19.0358 7.45672C19.298 7.34804 19.5221 7.16405 19.6797 6.92802C19.8373 6.692 19.9214 6.41453 19.9213 6.13072C19.9213 5.33856 19.2786 4.69636 18.4864 4.69636Z" fill="black"/>
<path fill-rule="evenodd" clip-rule="evenodd" d="M12.1037 6.37286C8.71256 6.37286 5.96314 9.12225 5.96314 12.5134C5.96314 15.9045 8.71256 18.6526 12.1037 18.6526C15.4948 18.6526 18.2435 15.9045 18.2435 12.5134C18.2435 9.12225 15.4948 6.37286 12.1037 6.37286ZM12.1285 16.4662C14.2954 16.4662 16.052 14.7096 16.052 12.5427C16.052 10.3759 14.2954 8.61931 12.1285 8.61931C9.96169 8.61931 8.2051 10.3759 8.2051 12.5427C8.2051 14.7096 9.96169 16.4662 12.1285 16.4662Z" fill="black"/>
</svg>
