<svg width="24" height="25" viewBox="0 0 24 25" fill="none" xmlns="http://www.w3.org/2000/svg">
<path fill-rule="evenodd" clip-rule="evenodd" d="M4.0649 0.585571C1.86724 0.585571 0.0856934 2.37004 0.0856934 4.57129V20.5142C0.0856934 22.7154 1.86725 24.4999 4.0649 24.4999H19.5226C21.7202 24.4999 23.5018 22.7154 23.5018 20.5142V4.57129C23.5018 2.37004 21.7202 0.585571 19.5226 0.585571H4.0649ZM3.2994 5.9352C3.2994 7.1376 4.20953 8.01629 5.33222 8.01629C6.45507 8.01629 7.3652 7.1376 7.3652 5.9352C7.3652 4.73297 6.45507 3.85328 5.33222 3.85328C4.20953 3.85328 3.2994 4.73297 3.2994 5.9352ZM16.5685 21.1382H20.0946V14.0151C20.0946 10.4971 17.9684 9.29723 16.0009 9.29723C14.1816 9.29723 12.9457 10.5077 12.6045 11.2167V9.62094H9.21349V21.1382H12.7395V14.8939C12.7395 13.229 13.7651 12.4193 14.8114 12.4193C15.8011 12.4193 16.5685 12.9917 16.5685 14.8477V21.1382ZM7.09516 9.61207V21.1293H3.56928V9.61207H7.09516Z" fill="black"/>
</svg>
