<svg width="22" height="23" viewBox="0 0 22 23" fill="none" xmlns="http://www.w3.org/2000/svg">
<g clip-path="url(#clip0_720_1149)">
<path d="M0.625508 11.252C0.625016 13.1004 1.08964 14.9053 1.97312 16.4961L0.541016 21.9314L5.89208 20.473C7.37211 21.3105 9.03038 21.7494 10.7155 21.7495H10.7199C16.2829 21.7495 20.8113 17.0439 20.8136 11.2602C20.8147 8.45763 19.7657 5.82224 17.8598 3.83951C15.9542 1.85695 13.4198 0.764539 10.7195 0.76326C5.15593 0.76326 0.627887 5.46853 0.62559 11.252" fill="url(#paint0_linear_720_1149)"/>
<path d="M0.26502 11.2486C0.264445 13.1635 0.745723 15.0329 1.6607 16.6807L0.177246 22.3109L5.72018 20.8001C7.24744 21.6657 8.96698 22.1221 10.7167 22.1228H10.7212C16.4837 22.1228 21.1748 17.248 21.1772 11.2573C21.1782 8.35395 20.0915 5.62381 18.1175 3.57006C16.1432 1.51655 13.5182 0.38483 10.7212 0.383636C4.9577 0.383636 0.267316 5.25775 0.26502 11.2486ZM3.56604 16.3969L3.35907 16.0554C2.48905 14.6174 2.02984 12.9556 2.0305 11.2492C2.0323 6.26983 5.93075 2.21868 10.7245 2.21868C13.046 2.2197 15.2277 3.16041 16.8686 4.8672C18.5095 6.57416 19.4124 8.84323 19.4119 11.2566C19.4097 16.236 15.5112 20.2877 10.7212 20.2877H10.7178C9.15811 20.2868 7.62847 19.8514 6.29448 19.0286L5.97702 18.8329L2.68773 19.7294L3.56604 16.3969Z" fill="url(#paint1_linear_720_1149)"/>
<path d="M8.10785 6.70634C7.91213 6.25415 7.70614 6.24502 7.52002 6.23709C7.3676 6.23027 7.19337 6.23078 7.0193 6.23078C6.84506 6.23078 6.56197 6.29891 6.32269 6.5705C6.08316 6.84235 5.4082 7.49928 5.4082 8.8354C5.4082 10.1716 6.34443 11.4629 6.47494 11.6442C6.60561 11.8253 8.28233 14.6549 10.9378 15.7435C13.1448 16.6481 13.5939 16.4682 14.0729 16.4228C14.552 16.3776 15.6187 15.7661 15.8363 15.1319C16.0541 14.4978 16.0541 13.9543 15.9888 13.8407C15.9235 13.7276 15.7493 13.6596 15.488 13.5239C15.2267 13.388 13.9422 12.731 13.7028 12.6404C13.4633 12.5498 13.2891 12.5046 13.1149 12.7766C12.9406 13.0481 12.4403 13.6596 12.2878 13.8407C12.1355 14.0223 11.983 14.0449 11.7218 13.909C11.4604 13.7728 10.619 13.4863 9.62075 12.5612C8.84408 11.8414 8.31974 10.9524 8.16732 10.6805C8.01491 10.409 8.151 10.2618 8.282 10.1265C8.39939 10.0048 8.54336 9.80936 8.67411 9.65085C8.80438 9.49224 8.84786 9.37908 8.93497 9.19797C9.02217 9.01668 8.97853 8.85808 8.91332 8.72224C8.84786 8.5864 8.34016 7.24329 8.10785 6.70634Z" fill="white"/>
</g>
<defs>
<linearGradient id="paint0_linear_720_1149" x1="1014.17" y1="2117.58" x2="1014.17" y2="0.76326" gradientUnits="userSpaceOnUse">
<stop stop-color="#1FAF38"/>
<stop offset="1" stop-color="#60D669"/>
</linearGradient>
<linearGradient id="paint1_linear_720_1149" x1="1050.18" y1="2193.11" x2="1050.18" y2="0.383636" gradientUnits="userSpaceOnUse">
<stop stop-color="#F9F9F9"/>
<stop offset="1" stop-color="white"/>
</linearGradient>
<clipPath id="clip0_720_1149">
<rect width="21" height="22" fill="white" transform="translate(0.177246 0.383636)"/>
</clipPath>
</defs>
</svg>
