<svg width="24" height="25" viewBox="0 0 24 25" fill="none" xmlns="http://www.w3.org/2000/svg">
<g id="arrow-right 1">
<path id="Vector" d="M13.22 19.28C13.0795 19.1394 13.0007 18.9488 13.0007 18.75C13.0007 18.5513 13.0795 18.3606 13.22 18.22L18.19 13.25H3.75C3.55109 13.25 3.36032 13.171 3.21967 13.0304C3.07902 12.8897 3 12.6989 3 12.5C3 12.3011 3.07902 12.1103 3.21967 11.9697C3.36032 11.829 3.55109 11.75 3.75 11.75H18.19L13.22 6.78002C13.1213 6.68835 13.0491 6.57175 13.0111 6.4425C12.9731 6.31325 12.9706 6.17614 13.004 6.04562C13.0374 5.91509 13.1053 5.79598 13.2007 5.70085C13.2961 5.60571 13.4154 5.53805 13.546 5.50502C13.6764 5.4716 13.8133 5.47394 13.9425 5.51177C14.0717 5.5496 14.1883 5.62154 14.28 5.72002L20.53 11.97C20.6705 12.1106 20.7493 12.3013 20.7493 12.5C20.7493 12.6988 20.6705 12.8894 20.53 13.03L14.28 19.28C14.1394 19.4205 13.9488 19.4994 13.75 19.4994C13.5512 19.4994 13.3606 19.4205 13.22 19.28Z" fill="black"/>
</g>
</svg>
