<svg width="51" height="50" viewBox="0 0 51 50" fill="none" xmlns="http://www.w3.org/2000/svg">
<g id="Light">
<path id="Vector" d="M25.0301 5.20825C17.0926 5.20825 11.4884 10.9228 11.4884 17.9562C11.4884 21.1562 12.8051 23.3145 14.4572 25.3728C14.8155 25.8208 15.1801 26.252 15.5551 26.6958L15.7551 26.9291C16.1926 27.4499 16.6447 27.9874 17.0676 28.5416C17.9092 29.6478 18.6988 30.8916 19.1405 32.3624C19.2487 32.7558 19.1987 33.1758 19.0013 33.5328C18.8039 33.8898 18.4747 34.1555 18.084 34.273C17.6934 34.3905 17.2723 34.3506 16.9107 34.1618C16.549 33.9729 16.2756 33.6502 16.1488 33.2624C15.8613 32.3041 15.3217 31.4083 14.5801 30.4353C14.1886 29.9293 13.7843 29.4333 13.3676 28.9478L13.1759 28.7187C12.8009 28.277 12.4051 27.8103 12.0197 27.3291C10.1759 25.0333 8.3634 22.1895 8.3634 17.9541C8.3634 9.0895 15.478 2.08325 25.0301 2.08325C34.5822 2.08325 41.6967 9.08742 41.6967 17.9562C41.6967 22.1895 39.8842 25.0333 38.0405 27.3312C37.6551 27.8103 37.2592 28.277 36.8842 28.7208L36.6926 28.9478C36.2551 29.4645 35.8488 29.9499 35.4801 30.4353C34.7384 31.4083 34.1988 32.3062 33.9113 33.2624C33.7784 33.6428 33.5037 33.9573 33.1447 34.1402C32.7856 34.3232 32.3698 34.3605 31.9839 34.2445C31.598 34.1285 31.2717 33.868 31.0731 33.5174C30.8744 33.1668 30.8187 32.7531 30.9176 32.3624C31.3613 30.8916 32.1509 29.6478 32.9947 28.5416C33.4155 27.9874 33.8676 27.4499 34.3072 26.9291L34.5051 26.6958C34.8801 26.252 35.2447 25.8208 35.603 25.3749C37.2551 23.3124 38.5717 21.1562 38.5717 17.9562C38.5717 10.9228 32.9676 5.20825 25.0301 5.20825ZM18.2592 37.4999H31.8009C32.2153 37.4999 32.6127 37.6645 32.9058 37.9576C33.1988 38.2506 33.3634 38.648 33.3634 39.0624C33.3634 39.4768 33.1988 39.8743 32.9058 40.1673C32.6127 40.4603 32.2153 40.6249 31.8009 40.6249H18.2592C17.8448 40.6249 17.4474 40.4603 17.1544 40.1673C16.8614 39.8743 16.6967 39.4768 16.6967 39.0624C16.6967 38.648 16.8614 38.2506 17.1544 37.9576C17.4474 37.6645 17.8448 37.4999 18.2592 37.4999ZM19.8217 45.3124C19.8217 44.898 19.9864 44.5006 20.2794 44.2076C20.5724 43.9145 20.9698 43.7499 21.3842 43.7499H28.6759C29.0903 43.7499 29.4877 43.9145 29.7808 44.2076C30.0738 44.5006 30.2384 44.898 30.2384 45.3124C30.2384 45.7268 30.0738 46.1243 29.7808 46.4173C29.4877 46.7103 29.0903 46.8749 28.6759 46.8749H21.3842C20.9698 46.8749 20.5724 46.7103 20.2794 46.4173C19.9864 46.1243 19.8217 45.7268 19.8217 45.3124Z" fill="black"/>
</g>
</svg>
