<svg width="50" height="51" viewBox="0 0 50 51" fill="none" xmlns="http://www.w3.org/2000/svg">
<path d="M0 27.3333C0 13.5271 11.1938 2.33331 25 2.33331C38.8062 2.33331 50 13.5271 50 27.3333V45.3687C50 45.7831 49.8354 46.1806 49.5424 46.4736C49.2493 46.7666 48.8519 46.9312 48.4375 46.9312C48.0231 46.9312 47.6257 46.7666 47.3326 46.4736C47.0396 46.1806 46.875 45.7831 46.875 45.3687V27.3333C46.875 15.2521 37.0812 5.45831 25 5.45831C12.9188 5.45831 3.125 15.2521 3.125 27.3333V45.3687C3.125 45.7831 2.96038 46.1806 2.66735 46.4736C2.37433 46.7666 1.9769 46.9312 1.5625 46.9312C1.1481 46.9312 0.750671 46.7666 0.457646 46.4736C0.16462 46.1806 0 45.7831 0 45.3687V27.3333Z" fill="black"/>
<path d="M16.6667 41.3958C16.6667 40.9814 16.8313 40.584 17.1243 40.291C17.4173 39.9979 17.8148 39.8333 18.2292 39.8333H31.7708C32.1852 39.8333 32.5827 39.9979 32.8757 40.291C33.1687 40.584 33.3333 40.9814 33.3333 41.3958C33.3333 41.8102 33.1687 42.2076 32.8757 42.5007C32.5827 42.7937 32.1852 42.9583 31.7708 42.9583H18.2292C17.8148 42.9583 17.4173 42.7937 17.1243 42.5007C16.8313 42.2076 16.6667 41.8102 16.6667 41.3958ZM10.9375 20.0416H39.0625C41.075 20.0416 42.7083 21.675 42.7083 23.6875V30.9791C42.7083 31.9461 42.3242 32.8734 41.6405 33.5571C40.9568 34.2409 40.0294 34.625 39.0625 34.625H10.9375C9.97056 34.625 9.04323 34.2409 8.35951 33.5571C7.67578 32.8734 7.29167 31.9461 7.29167 30.9791V23.6875C7.29167 21.675 8.925 20.0416 10.9375 20.0416ZM11.3958 23.1041C11.1032 23.3971 10.9389 23.7943 10.9389 24.2083C10.9389 24.6224 11.1032 25.0195 11.3958 25.3125L17.6458 31.5625C17.9388 31.8551 18.3359 32.0194 18.75 32.0194C19.1641 32.0194 19.5612 31.8551 19.8542 31.5625L25 26.4166L30.1458 31.5625C30.4388 31.8551 30.8359 32.0194 31.25 32.0194C31.6641 32.0194 32.0612 31.8551 32.3542 31.5625L38.6042 25.3125C38.8098 25.1215 38.9602 24.8786 39.0394 24.6093C39.1186 24.34 39.1237 24.0544 39.0542 23.7825C38.9846 23.5105 38.8431 23.2624 38.6443 23.0642C38.4456 22.866 38.1971 22.7251 37.925 22.6562C37.6534 22.5866 37.368 22.5915 37.0989 22.6703C36.8298 22.7491 36.587 22.899 36.3958 23.1041L31.25 28.25L26.1042 23.1041C25.8112 22.8115 25.4141 22.6472 25 22.6472C24.5859 22.6472 24.1888 22.8115 23.8958 23.1041L18.75 28.25L13.6042 23.1041C13.3112 22.8115 12.9141 22.6472 12.5 22.6472C12.0859 22.6472 11.6888 22.8115 11.3958 23.1041Z" fill="black"/>
</svg>
