<svg width="51" height="50" viewBox="0 0 51 50" fill="none" xmlns="http://www.w3.org/2000/svg">
<g id="Web">
<path id="Vector" d="M25.0601 2.08325C37.7164 2.08325 47.9768 12.3437 47.9768 24.9999C47.9768 37.6562 37.7164 47.9166 25.0601 47.9166C12.4039 47.9166 2.14343 37.6562 2.14343 24.9999C2.14343 12.3437 12.4039 2.08325 25.0601 2.08325ZM31.8122 23.9583V23.9562C31.6039 18.3145 29.7455 13.7395 27.8747 10.5145C27.0781 9.13661 26.1695 7.82663 25.158 6.59784L25.0601 6.47909L24.9622 6.602C24.2247 7.48742 23.2372 8.81034 22.2455 10.5187C20.3747 13.7416 18.5164 18.3166 18.308 23.9583H31.8122ZM5.29552 23.9583H15.1809C15.3893 17.6312 17.4726 12.5208 19.5414 8.94992C20.3539 7.54992 21.1664 6.38117 21.8726 5.4645C12.7893 6.93534 5.78093 14.5833 5.29552 23.9583ZM44.8247 23.9583C44.3393 14.5833 37.3309 6.93534 28.2476 5.4645C28.9539 6.38117 29.7664 7.54992 30.5789 8.94992C32.6476 12.5208 34.7309 17.6312 34.9393 23.9583H44.8247ZM18.3663 27.0833C18.7455 32.2458 20.4914 36.4583 22.2455 39.4853C23.0414 40.8624 23.9497 42.1728 24.9622 43.402L25.0601 43.5208L25.158 43.3978C25.8955 42.5124 26.883 41.1895 27.8747 39.4812C29.6289 36.4583 31.3726 32.2499 31.7539 27.0833H18.3663ZM15.233 27.0833H5.37677C5.83478 31.3976 7.69704 35.4422 10.6773 38.5952C13.6576 41.7482 17.5909 43.8352 21.8726 44.5353C21.0221 43.4244 20.2434 42.2602 19.5414 41.0499C17.5872 37.677 15.6226 32.9312 15.233 27.0833ZM34.8872 27.0833C34.4997 32.9312 32.533 37.677 30.5789 41.0499C29.7664 42.4499 28.9539 43.6187 28.2497 44.5353C32.5305 43.834 36.4627 41.7466 39.4421 38.5937C42.4214 35.4408 44.2832 31.3969 44.7414 27.0833H34.8872Z" fill="black"/>
</g>
</svg>
