<svg width="51" height="51" viewBox="0 0 51 51" fill="none" xmlns="http://www.w3.org/2000/svg">
<g id="Zap">
<path id="Vector" d="M32.7717 3.01876C33.2503 2.60153 33.8568 2.3598 34.4913 2.33341C35.1257 2.30702 35.7502 2.49754 36.2619 2.87358C36.7735 3.24963 37.1418 3.78875 37.3061 4.40212C37.4703 5.0155 37.4207 5.66653 37.1654 6.24793L31.5862 19H40.255C43.6362 19 45.1967 23.2 42.6362 25.4063L16.9092 47.5854C16.5009 47.9416 15.9838 48.1486 15.4425 48.1726C14.9012 48.1965 14.3678 48.0359 13.9297 47.7171C13.4916 47.3983 13.1747 46.9403 13.0309 46.4179C12.8872 45.8955 12.925 45.3397 13.1383 44.8417L18.7717 31.5H9.7675C6.39458 31.5 4.83 27.3167 7.37583 25.1042L32.7717 3.02085V3.01876ZM33.7133 6.34168L9.42583 27.4604C9.3455 27.53 9.28836 27.6224 9.26209 27.7254C9.23582 27.8284 9.24167 27.9369 9.27885 28.0364C9.31604 28.136 9.38278 28.2218 9.47013 28.2823C9.55747 28.3428 9.66124 28.3752 9.7675 28.375H21.1217C21.3797 28.3742 21.6339 28.4375 21.8615 28.559C22.0891 28.6806 22.283 28.8567 22.4259 29.0716C22.5687 29.2865 22.6561 29.5334 22.68 29.7904C22.704 30.0473 22.6639 30.3061 22.5633 30.5438L17.2321 43.1813L40.5967 23.0396C40.677 22.97 40.7341 22.8776 40.7604 22.7746C40.7867 22.6717 40.7808 22.5631 40.7436 22.4636C40.7065 22.364 40.6397 22.2783 40.5524 22.2177C40.465 22.1572 40.3613 22.1249 40.255 22.125H29.1967C28.9373 22.1249 28.682 22.0602 28.4539 21.9367C28.2258 21.8133 28.032 21.635 27.89 21.418C27.748 21.2009 27.6622 20.952 27.6405 20.6935C27.6187 20.435 27.6617 20.1752 27.7654 19.9375L33.7133 6.34168Z" fill="black"/>
</g>
</svg>
