<svg width="163" height="61" viewBox="0 0 163 61" fill="none" xmlns="http://www.w3.org/2000/svg">
<g clip-path="url(#clip0_554_934)">
<path d="M16.7258 42.7898L17.9917 42.7965L0.787119 61.1118L0.015159 60.3771L16.7258 42.7898Z" fill="black"/>
<path d="M40.03 21.0223L38.6721 21.1122L58.5387 -5.73859e-06L59.3107 0.734745L40.03 21.0223Z" fill="black"/>
<path d="M12.6804 38.8137V25.095H14.8401V36.6579H20.9205V38.8137H12.6804Z" fill="black"/>
<path d="M22.6255 38.8137V25.095H24.4031L29.4868 35.1097H28.5564L33.557 25.095H35.3346L35.3512 38.8137H33.3078L33.2912 28.8774H33.7231L29.4701 37.2459H28.5066L24.1872 28.8774H24.6856V38.8137H22.6255Z" fill="black"/>
<path d="M38.4924 38.8137V25.095H40.6521V36.6579H46.7325V38.8137H38.4924Z" fill="black"/>
<path d="M81.25 11.9543H75.1719V0.134033H76.3516V10.884H81.25V11.9543ZM83.7422 11.9543H82.5625V0.134033H83.7422V11.9543ZM91.6562 1.20435H88.9531V11.9543H87.7656V1.20435H85.0625V0.134033H91.6562V1.20435ZM103.398 0.134033L98.5078 11.9543H97.3516L92.4844 0.134033H93.7812L97.9453 10.4856L102.117 0.134033H103.398ZM105.961 11.9543H104.781V0.134033H105.961V11.9543ZM117.797 11.9543H116.609L109.57 1.55591V11.9543H108.391V0.134033H109.984L116.609 9.93872V0.134033H117.797V11.9543ZM87.4375 35.9543H86.2578V25.4231L81.8125 35.9543H80.7812L76.3516 25.4231V35.9543H75.1719V24.134H77.0078L81.3125 34.1965L85.6016 24.134H87.4375V35.9543ZM100.32 35.9543H99.0234L97.3125 31.97H91.8047L90.0781 35.9543H88.8359L93.9062 24.134H95.2344L100.32 35.9543ZM96.8516 30.8997L94.5781 25.4778L92.2578 30.8997H96.8516ZM109.734 27.9387C109.734 28.9856 109.435 29.8189 108.836 30.4387C108.242 31.0533 107.378 31.4205 106.242 31.5403L109.555 35.9543H108.086L104.102 30.595C104.956 30.595 105.654 30.5559 106.195 30.4778C106.737 30.3944 107.188 30.2486 107.547 30.0403C107.911 29.8319 108.167 29.5559 108.312 29.2122C108.458 28.8684 108.531 28.4283 108.531 27.8918C108.531 26.9231 108.219 26.233 107.594 25.8215C106.969 25.4101 105.958 25.2043 104.562 25.2043H102.898V35.9543H101.719V24.134H104.641C105.557 24.134 106.344 24.2174 107 24.384C107.656 24.5455 108.182 24.7903 108.578 25.1184C108.979 25.4465 109.271 25.8424 109.453 26.3059C109.641 26.7642 109.734 27.3085 109.734 27.9387ZM117.805 35.9543H110.492V34.884L116.297 25.2043H110.664V24.134H117.625V25.2043L111.836 34.884H117.805V35.9543ZM131.109 30.0481C131.109 30.871 130.943 31.6601 130.609 32.4153C130.276 33.1653 129.831 33.8163 129.273 34.3684C128.716 34.9153 128.052 35.3528 127.281 35.6809C126.51 36.0038 125.706 36.1653 124.867 36.1653C124.013 36.1653 123.201 36.0038 122.43 35.6809C121.659 35.3528 120.992 34.9127 120.43 34.3606C119.872 33.8085 119.43 33.1497 119.102 32.384C118.773 31.6184 118.609 30.8137 118.609 29.97C118.609 29.1627 118.776 28.3866 119.109 27.6418C119.448 26.8971 119.898 26.2538 120.461 25.7122C121.023 25.1705 121.69 24.7382 122.461 24.4153C123.232 24.0872 124.034 23.9231 124.867 23.9231C125.706 23.9231 126.51 24.0846 127.281 24.4075C128.052 24.7304 128.716 25.1679 129.273 25.72C129.836 26.2668 130.281 26.9179 130.609 27.6731C130.943 28.4283 131.109 29.22 131.109 30.0481ZM129.906 30.0637C129.906 29.3866 129.771 28.7356 129.5 28.1106C129.234 27.4856 128.875 26.9465 128.422 26.4934C127.969 26.0403 127.432 25.6809 126.812 25.4153C126.193 25.1444 125.544 25.009 124.867 25.009C124.195 25.009 123.547 25.1444 122.922 25.4153C122.302 25.6809 121.766 26.0377 121.312 26.4856C120.859 26.9335 120.495 27.4674 120.219 28.0872C119.948 28.7017 119.812 29.3398 119.812 30.0012C119.812 30.9179 120.039 31.7668 120.492 32.5481C120.945 33.3241 121.56 33.9387 122.336 34.3918C123.112 34.845 123.956 35.0715 124.867 35.0715C125.544 35.0715 126.193 34.9387 126.812 34.6731C127.432 34.4023 127.969 34.0429 128.422 33.595C128.875 33.1471 129.234 32.6158 129.5 32.0012C129.771 31.3814 129.906 30.7356 129.906 30.0637ZM141.047 27.9387C141.047 28.9856 140.747 29.8189 140.148 30.4387C139.555 31.0533 138.69 31.4205 137.555 31.5403L140.867 35.9543H139.398L135.414 30.595C136.268 30.595 136.966 30.5559 137.508 30.4778C138.049 30.3944 138.5 30.2486 138.859 30.0403C139.224 29.8319 139.479 29.5559 139.625 29.2122C139.771 28.8684 139.844 28.4283 139.844 27.8918C139.844 26.9231 139.531 26.233 138.906 25.8215C138.281 25.4101 137.271 25.2043 135.875 25.2043H134.211V35.9543H133.031V24.134H135.953C136.87 24.134 137.656 24.2174 138.312 24.384C138.969 24.5455 139.495 24.7903 139.891 25.1184C140.292 25.4465 140.583 25.8424 140.766 26.3059C140.953 26.7642 141.047 27.3085 141.047 27.9387ZM153.195 35.9543H151.898L150.188 31.97H144.68L142.953 35.9543H141.711L146.781 24.134H148.109L153.195 35.9543ZM149.727 30.8997L147.453 25.4778L145.133 30.8997H149.727ZM159.281 25.2043H156.578V35.9543H155.391V25.2043H152.688V24.134H159.281V25.2043ZM161.789 35.9543H160.609V24.134H161.789V35.9543ZM81.25 59.9543H75.1719V48.134H76.3516V58.884H81.25V59.9543ZM89.0234 59.9543H82.5625V48.134H89.0234V49.2043H83.7422V53.4387H88.8516V54.5168H83.7422V58.884H89.0234V59.9543ZM103.219 54.5012C103.172 55.2408 102.984 55.9543 102.656 56.6418C102.333 57.3293 101.906 57.9335 101.375 58.4543C100.844 58.97 100.201 59.384 99.4453 59.6965C98.6953 60.009 97.8984 60.1653 97.0547 60.1653C95.8672 60.1653 94.7812 59.8944 93.7969 59.3528C92.8125 58.8111 92.0365 58.0715 91.4688 57.134C90.9062 56.1913 90.625 55.1523 90.625 54.0168C90.625 53.1731 90.7865 52.3762 91.1094 51.6262C91.4375 50.871 91.8802 50.2226 92.4375 49.6809C92.9948 49.1392 93.6615 48.7122 94.4375 48.3997C95.2135 48.0819 96.0339 47.9231 96.8984 47.9231C98.1901 47.9231 99.349 48.233 100.375 48.8528C101.401 49.4674 102.109 50.2773 102.5 51.2825H101.172C100.766 50.5637 100.195 50.0064 99.4609 49.6106C98.7266 49.2096 97.9036 49.009 96.9922 49.009C96.0339 49.009 95.1589 49.2304 94.3672 49.6731C93.5807 50.1106 92.9609 50.7148 92.5078 51.4856C92.0547 52.2564 91.8281 53.1106 91.8281 54.0481C91.8281 54.7408 91.9635 55.3971 92.2344 56.0168C92.5052 56.6366 92.8698 57.1705 93.3281 57.6184C93.7865 58.0663 94.3359 58.4205 94.9766 58.6809C95.6172 58.9413 96.2943 59.0715 97.0078 59.0715C98.1536 59.0715 99.1823 58.7278 100.094 58.0403C101.01 57.3528 101.578 56.5299 101.797 55.5715H95.1875V54.5012H103.219ZM114.898 59.9543H113.602L111.891 55.97H106.383L104.656 59.9543H103.414L108.484 48.134H109.812L114.898 59.9543ZM111.43 54.8997L109.156 49.4778L106.836 54.8997H111.43ZM122.375 59.9543H116.297V48.134H117.477V58.884H122.375V59.9543ZM130.148 59.9543H123.688V48.134H130.148V49.2043H124.867V53.4387H129.977V54.5168H124.867V58.884H130.148V59.9543ZM138.664 56.6575C138.664 57.6627 138.326 58.4986 137.648 59.1653C136.971 59.8319 136.12 60.1653 135.094 60.1653C134.031 60.1653 133.164 59.845 132.492 59.2043C131.82 58.5585 131.456 57.7043 131.398 56.6418H132.664C132.753 57.4231 133.016 58.0247 133.453 58.4465C133.891 58.8632 134.448 59.0715 135.125 59.0715C135.797 59.0715 136.354 58.8502 136.797 58.4075C137.24 57.9596 137.461 57.3971 137.461 56.72C137.461 56.0741 137.276 55.5793 136.906 55.2356C136.536 54.8866 135.841 54.5559 134.82 54.2434C134.138 54.0403 133.659 53.8736 133.383 53.7434C133.107 53.608 132.852 53.4283 132.617 53.2043C132.352 52.9596 132.146 52.6523 132 52.2825C131.854 51.9075 131.781 51.5142 131.781 51.1028C131.781 50.1809 132.089 49.4205 132.703 48.8215C133.323 48.2226 134.109 47.9231 135.062 47.9231C136.036 47.9231 136.831 48.22 137.445 48.8137C138.065 49.4023 138.375 50.1731 138.375 51.1262H137.141C137.141 50.496 136.94 49.9856 136.539 49.595C136.143 49.2043 135.641 49.009 135.031 49.009C134.438 49.009 133.948 49.2043 133.562 49.595C133.177 49.9856 132.984 50.4778 132.984 51.0715C132.984 51.3424 133.034 51.6028 133.133 51.8528C133.237 52.1028 133.372 52.3007 133.539 52.4465C133.69 52.5819 133.883 52.6991 134.117 52.7981C134.352 52.8971 134.742 53.0273 135.289 53.1887C135.883 53.3658 136.333 53.5221 136.641 53.6575C136.953 53.7929 137.232 53.9517 137.477 54.134C137.852 54.4153 138.143 54.7773 138.352 55.22C138.56 55.6575 138.664 56.1366 138.664 56.6575Z" fill="black"/>
</g>
<defs>
<clipPath id="clip0_554_934">
<rect width="163" height="61" fill="white"/>
</clipPath>
</defs>
</svg>
