<svg width="67" height="67" viewBox="0 0 67 67" fill="none" xmlns="http://www.w3.org/2000/svg">
<g clip-path="url(#clip0_631_681)">
<path d="M39.6844 3.28062V3.27647C40.5855 13.1801 45.7594 18.3333 50.7008 23.2498C55.6173 28.1413 60.3013 32.8045 60.3013 41.6783C60.3013 56.2119 47.844 66.593 33.3104 66.593C18.7768 66.593 6.32776 56.2617 6.32776 41.6783C6.32776 36.2885 8.55347 31.0481 12.245 28.0334C13.8063 26.7544 15.8244 28.0334 16.5428 29.9186C18.619 35.3957 23.2739 35.1133 25.0138 33.3734C26.1848 32.2024 26.4298 30.0058 25.0013 27.1448C18.1207 13.3877 29.3116 3.26816 36.5161 0.760083C38.1355 0.191198 39.5307 1.56566 39.6844 3.28062ZM33.3104 60.3644C45.0701 60.3644 54.0726 52.1425 54.0726 41.6783C54.0726 35.6033 51.249 32.5845 46.2702 27.6306L46.1207 27.477C41.9143 23.2913 36.5701 17.9678 34.3526 9.06498C33.0156 10.128 31.7366 11.4693 30.7649 13.0223C28.9711 15.9124 28.1863 19.5831 30.5739 24.3585C32.538 28.2908 33.3561 33.8427 29.4195 37.7792C26.8865 40.3122 23.004 41.2672 19.4412 40.4077C17.1277 39.8398 15.0455 38.5725 13.4783 36.7784C12.8644 38.3389 12.5516 40.0015 12.5564 41.6783C12.5564 52.184 21.5423 60.3644 33.3104 60.3644Z" fill="url(#paint0_linear_631_681)"/>
</g>
<defs>
<linearGradient id="paint0_linear_631_681" x1="100.292" y1="-74.8433" x2="-57.0777" y2="-59.9703" gradientUnits="userSpaceOnUse">
<stop offset="0.147291" stop-color="#FFBE41"/>
<stop offset="0.911106" stop-color="#E77D43"/>
</linearGradient>
<clipPath id="clip0_631_681">
<rect width="66.4392" height="66.4392" fill="white" transform="translate(0.0991211 0.153839)"/>
</clipPath>
</defs>
</svg>
