<svg width="67" height="67" viewBox="0 0 67 67" fill="none" xmlns="http://www.w3.org/2000/svg">
<g clip-path="url(#clip0_631_669)">
<path d="M6.64304 7.42061V56.2119H63.7392C64.5652 56.2119 65.3573 56.54 65.9414 57.1241C66.5255 57.7081 66.8536 58.5003 66.8536 59.3262C66.8536 60.1522 66.5255 60.9444 65.9414 61.5284C65.3573 62.1125 64.5652 62.4406 63.7392 62.4406H3.52871C2.70273 62.4406 1.91059 62.1125 1.32654 61.5284C0.742484 60.9444 0.414368 60.1522 0.414368 59.3262L0.414368 7.42061C0.414368 6.59464 0.742484 5.80249 1.32654 5.21844C1.91059 4.63439 2.70273 4.30627 3.52871 4.30627C4.35468 4.30627 5.14682 4.63439 5.73087 5.21844C6.31493 5.80249 6.64304 6.59464 6.64304 7.42061ZM65.94 17.9263L44.1397 39.7267C43.5557 40.3099 42.7642 40.6375 41.9389 40.6375C41.1136 40.6375 40.322 40.3099 39.7381 39.7267L29.4815 29.4701L18.1869 40.7648C17.5961 41.3146 16.8152 41.614 16.0084 41.6001C15.2015 41.5861 14.4314 41.2599 13.86 40.69C13.2901 40.1187 12.9639 39.3486 12.95 38.5417C12.936 37.7348 13.2354 36.9539 13.7853 36.3632L27.2807 22.8677C27.8647 22.2845 28.6562 21.9569 29.4815 21.9569C30.3068 21.9569 31.0984 22.2845 31.6823 22.8677L41.9389 33.1243L61.5384 13.5247C62.1292 12.9749 62.91 12.6755 63.7169 12.6894C64.5238 12.7034 65.2939 13.0296 65.8653 13.5995C66.4352 14.1708 66.7614 14.9409 66.7753 15.7478C66.7893 16.5547 66.4898 17.3356 65.94 17.9263Z" fill="url(#paint0_linear_631_669)"/>
</g>
<defs>
<linearGradient id="paint0_linear_631_669" x1="116.081" y1="-62.2089" x2="-76.018" y2="-36.8509" gradientUnits="userSpaceOnUse">
<stop offset="0.147291" stop-color="#FFBE41"/>
<stop offset="0.911106" stop-color="#E77D43"/>
</linearGradient>
<clipPath id="clip0_631_669">
<rect width="66.4392" height="66.4392" fill="white" transform="translate(0.414368 0.153839)"/>
</clipPath>
</defs>
</svg>
