<svg width="25" height="26" viewBox="0 0 25 26" fill="none" xmlns="http://www.w3.org/2000/svg">
<path fill-rule="evenodd" clip-rule="evenodd" d="M4.36766 0.647095C2.11319 0.647095 0.285583 2.4777 0.285583 4.73586V21.0909C0.285583 23.3491 2.11319 25.1797 4.36767 25.1797H20.225C22.4794 25.1797 24.3071 23.3491 24.3071 21.0909V4.73586C24.3071 2.4777 22.4794 0.647095 20.225 0.647095H4.36766ZM3.58237 6.13503C3.58237 7.36852 4.51604 8.26992 5.66775 8.26992C6.81963 8.26992 7.75329 7.36852 7.75329 6.13503C7.75329 4.90172 6.81963 3.99929 5.66775 3.99929C4.51604 3.99929 3.58237 4.90172 3.58237 6.13503ZM17.1945 21.731H20.8118V14.4238C20.8118 10.8149 18.6306 9.58398 16.6123 9.58398C14.7459 9.58398 13.4781 10.8257 13.1281 11.5531V9.91606H9.64936V21.731H13.2666V15.3254C13.2666 13.6174 14.3187 12.7867 15.392 12.7867C16.4072 12.7867 17.1945 13.3739 17.1945 15.2779V21.731ZM7.47626 9.90695V21.7219H3.85923V9.90695H7.47626Z" fill="#00A9FF"/>
</svg>
