<svg width="68" height="68" viewBox="0 0 68 68" fill="none" xmlns="http://www.w3.org/2000/svg">
<g clip-path="url(#clip0_631_693)">
<path d="M23.7664 18.2658C23.7664 15.7879 24.7507 13.4114 26.5029 11.6593C28.255 9.90712 30.6315 8.92277 33.1094 8.92277C35.5873 8.92277 37.9638 9.90712 39.7159 11.6593C41.4681 13.4114 42.4524 15.7879 42.4524 18.2658C42.4524 19.0918 42.7805 19.8839 43.3646 20.468C43.9486 21.052 44.7408 21.3801 45.5668 21.3801C46.3927 21.3801 47.1849 21.052 47.7689 20.468C48.353 19.8839 48.6811 19.0918 48.6811 18.2658C48.6816 15.6427 48.0194 13.062 46.7561 10.7632C45.4928 8.46437 43.6692 6.52194 41.4546 5.11617C39.24 3.71041 36.7062 2.88686 34.0883 2.72196C31.4704 2.55707 28.8533 3.05616 26.4798 4.17293C24.1063 5.28971 22.0534 6.98796 20.5116 9.11008C18.9698 11.2322 17.9891 13.7094 17.6604 16.3118C17.3318 18.9143 17.6658 21.5575 18.6317 23.9963C19.5975 26.4351 21.1637 28.5904 23.185 30.2622L13.7507 47.9434C13.3619 48.6724 13.2787 49.526 13.5193 50.3165C13.76 51.1069 14.3047 51.7693 15.0338 52.1581C15.7628 52.5468 16.6165 52.6301 17.4069 52.3894C18.1973 52.1488 18.8598 51.604 19.2485 50.875L29.9951 30.7231C30.1877 30.3622 30.3073 29.9668 30.3471 29.5596C30.3868 29.1524 30.346 28.7413 30.2268 28.3499C30.1076 27.9585 29.9125 27.5944 29.6526 27.2784C29.3927 26.9625 29.073 26.7008 28.712 26.5084C27.2181 25.7115 25.9689 24.5237 25.0978 23.0719C24.2267 21.6201 23.7665 19.9589 23.7664 18.2658Z" fill="url(#paint0_linear_631_693)"/>
<path d="M31.5065 15.5957C31.8573 15.3846 32.2463 15.2447 32.6512 15.1841C33.0562 15.1235 33.4691 15.1433 33.8663 15.2424C34.2636 15.3415 34.6374 15.518 34.9664 15.7618C35.2954 16.0055 35.573 16.3117 35.7835 16.6629L46.6131 34.7219C49.076 33.8542 51.7176 33.6197 54.2949 34.0402C56.8721 34.4606 59.3022 35.5225 61.3616 37.128C63.421 38.7335 65.0436 40.8311 66.0801 43.2279C67.1166 45.6247 67.5337 48.2437 67.293 50.8438C67.0524 53.444 66.1617 55.9419 64.7029 58.1078C63.2441 60.2736 61.2641 62.0378 58.9449 63.238C56.6258 64.4383 54.0421 65.0361 51.4315 64.9763C48.8209 64.9166 46.2672 64.2013 44.0054 62.8963C43.2901 62.4822 42.7686 61.8009 42.5556 61.0023C42.3426 60.2037 42.4556 59.3532 42.8697 58.6379C43.2838 57.9227 43.9651 57.4012 44.7637 57.1882C45.5623 56.9752 46.4128 57.0882 47.128 57.5023C48.5543 58.3238 50.1723 58.754 51.8183 58.7492C53.4643 58.7445 55.0798 58.305 56.5013 57.4752C57.9229 56.6455 59.0999 55.4549 59.9135 54.024C60.727 52.5931 61.1481 50.9727 61.1341 49.3268C61.1201 47.6809 60.6715 46.0679 59.8337 44.651C58.996 43.2342 57.7988 42.0638 56.3634 41.2583C54.928 40.4529 53.3052 40.0409 51.6594 40.0642C50.0136 40.0874 48.4031 40.5451 46.991 41.3907C46.6405 41.602 46.2517 41.7422 45.8469 41.8031C45.4422 41.864 45.0294 41.8446 44.6321 41.7458C44.2349 41.6471 43.861 41.471 43.5319 41.2277C43.2028 40.9844 42.9248 40.6785 42.714 40.3277L30.4393 19.8686C30.2282 19.5178 30.0884 19.1288 30.0277 18.7239C29.9671 18.3189 29.9869 17.906 30.086 17.5088C30.1852 17.1115 30.3616 16.7377 30.6054 16.4087C30.8491 16.0798 31.1554 15.8021 31.5065 15.5916V15.5957Z" fill="url(#paint1_linear_631_693)"/>
<path d="M12.9701 37.0598C13.3822 37.7751 13.4934 38.6249 13.2793 39.4222C13.0652 40.2195 12.5432 40.8992 11.8281 41.3119C10.408 42.1318 9.22873 43.311 8.40873 44.731C7.58872 46.151 7.15689 47.7619 7.15663 49.4017C7.15637 51.0414 7.58768 52.6524 8.40723 54.0727C9.22678 55.493 10.4057 56.6726 11.8255 57.4929C13.2454 58.3133 14.8561 58.7455 16.4959 58.7462C18.1357 58.7468 19.7468 58.3159 21.1673 57.4967C22.5877 56.6775 23.7676 55.4988 24.5883 54.0792C25.409 52.6596 25.8416 51.0489 25.8427 49.4091C25.8421 48.9998 25.9223 48.5944 26.0785 48.2161C26.2348 47.8377 26.4641 47.4939 26.7534 47.2043C27.0426 46.9147 27.3861 46.6849 27.7642 46.5281C28.1423 46.3713 28.5477 46.2907 28.957 46.2907H51.7955C52.6214 46.2907 53.4136 46.6188 53.9976 47.2028C54.5817 47.7869 54.9098 48.579 54.9098 49.405C54.9098 50.231 54.5817 51.0231 53.9976 51.6072C53.4136 52.1912 52.6214 52.5193 51.7955 52.5193H31.7599C31.2404 55.0686 30.0906 57.4472 28.4155 59.4379C26.7403 61.4286 24.5932 62.9679 22.1702 63.9154C19.7471 64.8629 17.1253 65.1884 14.5442 64.8621C11.963 64.5358 9.5047 63.5681 7.39368 62.0474C5.28267 60.5267 3.5862 58.5014 2.45917 56.1565C1.33214 53.8116 0.810442 51.2217 0.941718 48.6233C1.07299 46.0249 1.85306 43.5008 3.21069 41.2814C4.56832 39.062 6.46026 37.218 8.71379 35.9178C9.42865 35.5054 10.278 35.3935 11.0753 35.6068C11.8726 35.8202 12.5526 36.3412 12.9659 37.0556L12.9701 37.0598Z" fill="url(#paint2_linear_631_693)"/>
</g>
<defs>
<linearGradient id="paint0_linear_631_693" x1="74.8338" y1="-54.3263" x2="-28.3095" y2="-45.888" gradientUnits="userSpaceOnUse">
<stop offset="0.147291" stop-color="#FFBE41"/>
<stop offset="0.911106" stop-color="#E77D43"/>
</linearGradient>
<linearGradient id="paint1_linear_631_693" x1="95.0451" y1="-41.8646" x2="-14.0569" y2="-32.4151" gradientUnits="userSpaceOnUse">
<stop offset="0.147291" stop-color="#FFBE41"/>
<stop offset="0.911106" stop-color="#E77D43"/>
</linearGradient>
<linearGradient id="paint2_linear_631_693" x1="94.9114" y1="1.76635" x2="-57.1065" y2="33.9179" gradientUnits="userSpaceOnUse">
<stop offset="0.147291" stop-color="#FFBE41"/>
<stop offset="0.911106" stop-color="#E77D43"/>
</linearGradient>
<clipPath id="clip0_631_693">
<rect width="66.4392" height="66.4392" fill="white" transform="translate(0.927856 0.617859)"/>
</clipPath>
</defs>
</svg>
