<svg width="68" height="68" viewBox="0 0 68 68" fill="none" xmlns="http://www.w3.org/2000/svg">
<g clip-path="url(#clip0_631_687)">
<path d="M58.9857 0.617859H59.7581C63.7694 0.617859 67.0249 3.87338 67.0249 7.88465V8.657C67.0214 18.2922 63.1918 27.5316 56.378 34.3441L54.4762 36.25C53.1723 37.5539 51.8145 38.8079 50.4109 40.0038V53.3208C50.4109 55.8454 49.1029 58.1874 46.9519 59.5079L35.433 66.5961C35.0284 66.8462 34.5717 67.0002 34.0982 67.0461C33.6248 67.092 33.147 67.0288 32.7018 66.8611C32.2566 66.6935 31.8558 66.4259 31.5303 66.0791C31.2047 65.7322 30.963 65.3153 30.8238 64.8604L26.8624 51.9795C26.6483 51.8226 26.447 51.6491 26.2603 51.4605L16.174 41.3783C15.9869 41.1914 15.8147 40.9901 15.6591 40.7762L2.77817 36.8148C2.32327 36.6756 1.90636 36.4339 1.55952 36.1083C1.21267 35.7828 0.945132 35.3819 0.777482 34.9368C0.609832 34.4916 0.546541 34.0138 0.592476 33.5403C0.638412 33.0669 0.79235 32.6102 1.04245 32.2055L8.14314 20.6867C8.79273 19.6293 9.70258 18.7561 10.7858 18.1505C11.869 17.545 13.0893 17.2272 14.3303 17.2277H27.6347C28.8306 15.8241 30.0847 14.4663 31.3886 13.1624L33.2945 11.2606C36.6682 7.88644 40.6734 5.20989 45.0815 3.3838C49.4897 1.55771 54.2143 0.617834 58.9857 0.617859ZM37.7003 15.6622H37.692L35.7902 17.564C32.6343 20.7199 29.8231 24.1996 27.4022 27.9451L21.1735 37.5664L30.0722 46.4651L39.6935 40.2364C43.439 37.8155 46.9187 35.0043 50.0704 31.8484L51.9764 29.9466C54.7718 27.1507 56.9891 23.8315 58.5017 20.1786C60.0143 16.5257 60.7926 12.6107 60.7921 8.657V7.88465C60.7921 7.60932 60.6827 7.34527 60.488 7.15059C60.2933 6.95591 60.0293 6.84653 59.7539 6.84653H58.9816C50.9996 6.84723 43.3446 10.0182 37.7003 15.6622ZM15.3684 61.0775C12.3288 64.1171 5.67658 65.4168 2.89029 65.8445C2.74008 65.8687 2.58629 65.8572 2.44132 65.8111C2.29635 65.7649 2.16425 65.6853 2.05565 65.5788C1.9491 65.4702 1.86954 65.3381 1.82338 65.1931C1.77722 65.0481 1.76575 64.8944 1.78989 64.7441C2.21759 61.9579 3.51731 55.3056 6.56521 52.2743C7.12877 51.6355 7.81721 51.1189 8.58809 50.7564C9.35898 50.3939 10.196 50.1931 11.0474 50.1665C11.8989 50.1399 12.7467 50.288 13.5388 50.6016C14.3308 50.9153 15.0502 51.3879 15.6525 51.9902C16.2549 52.5926 16.7275 53.312 17.0411 54.104C17.3548 54.896 17.5029 55.7439 17.4762 56.5953C17.4496 57.4468 17.2489 58.2838 16.8863 59.0546C16.5238 59.8255 16.0072 60.514 15.3684 61.0775ZM44.1864 44.7376C43.821 44.9868 43.4514 45.2276 43.0819 45.4643L33.3236 51.7802L35.5991 59.184L43.6923 54.2011C43.8433 54.1081 43.9681 53.978 44.0546 53.8232C44.1411 53.6684 44.1865 53.494 44.1864 53.3166V44.7376ZM15.8584 34.3191L22.1784 24.5609C22.4193 24.1872 22.6643 23.8217 22.9093 23.4563H14.3261C14.1488 23.4563 13.9744 23.5017 13.8195 23.5882C13.6647 23.6747 13.5346 23.7994 13.4417 23.9505L8.45873 32.0478L15.8584 34.3191ZM50.4151 21.3801C50.4151 22.4814 49.9776 23.5376 49.1989 24.3163C48.4201 25.0951 47.3639 25.5326 46.2626 25.5326C45.1613 25.5326 44.1051 25.0951 43.3264 24.3163C42.5477 23.5376 42.1102 22.4814 42.1102 21.3801C42.1102 20.2788 42.5477 19.2226 43.3264 18.4439C44.1051 17.6651 45.1613 17.2277 46.2626 17.2277C47.3639 17.2277 48.4201 17.6651 49.1989 18.4439C49.9776 19.2226 50.4151 20.2788 50.4151 21.3801Z" fill="url(#paint0_linear_631_687)"/>
</g>
<defs>
<linearGradient id="paint0_linear_631_687" x1="116.258" y1="-75.4036" x2="-76.6373" y2="-53.122" gradientUnits="userSpaceOnUse">
<stop offset="0.147291" stop-color="#FFBE41"/>
<stop offset="0.911106" stop-color="#E77D43"/>
</linearGradient>
<clipPath id="clip0_631_687">
<rect width="66.4392" height="66.4392" fill="white" transform="translate(0.585632 0.617859)"/>
</clipPath>
</defs>
</svg>
