<svg width="68" height="67" viewBox="0 0 68 67" fill="none" xmlns="http://www.w3.org/2000/svg">
<path d="M33.9764 1.19193C34.5578 1.19155 35.1277 1.35393 35.6216 1.66068C36.1154 1.96744 36.5136 2.40632 36.771 2.92765L44.5859 18.7692L62.0677 21.3105C62.6427 21.3941 63.1828 21.6367 63.6271 22.0111C64.0713 22.3855 64.402 22.8768 64.5817 23.4293C64.7614 23.9818 64.783 24.5735 64.644 25.1377C64.505 25.7018 64.2109 26.2158 63.7951 26.6215L51.1468 38.9543L54.1324 56.3614C54.2292 56.9338 54.1643 57.5218 53.945 58.0593C53.7258 58.5968 53.3609 59.0624 52.8913 59.4038C52.4218 59.7451 51.8663 59.9487 51.2874 59.9915C50.7085 60.0342 50.1291 59.9146 49.6145 59.646L33.9764 51.4241L18.3382 59.646C17.8241 59.9159 17.2448 60.0367 16.6656 59.9948C16.0864 59.9529 15.5305 59.7499 15.0606 59.4087C14.5908 59.0675 14.2256 58.6017 14.0065 58.064C13.7873 57.5263 13.7228 56.938 13.8204 56.3655L16.8101 38.9502L4.15347 26.6215C3.73643 26.2159 3.44132 25.7016 3.3016 25.1369C3.16188 24.5722 3.18313 23.9796 3.36295 23.4263C3.54276 22.8731 3.87394 22.3812 4.31897 22.0065C4.764 21.6319 5.30508 21.3893 5.88089 21.3064L23.3627 18.7692L31.1818 2.92765C31.4391 2.40632 31.8373 1.96744 32.3312 1.66068C32.8251 1.35393 33.395 1.19155 33.9764 1.19193ZM33.9764 11.3447L28.2252 22.9923C28.0019 23.4445 27.6721 23.8357 27.2641 24.1323C26.8562 24.4288 26.3823 24.6219 25.8832 24.6948L13.0231 26.5634L22.3246 35.6323C22.6865 35.9847 22.9572 36.4199 23.1135 36.9002C23.2698 37.3806 23.3068 37.8917 23.2215 38.3896L21.029 51.1957L32.5272 45.1498C32.9741 44.9148 33.4714 44.792 33.9764 44.792C34.4813 44.792 34.9786 44.9148 35.4256 45.1498L46.9279 51.1957L44.7271 38.3896C44.6418 37.8917 44.6788 37.3806 44.8351 36.9002C44.9913 36.4199 45.2621 35.9847 45.624 35.6323L54.9255 26.5676L42.0695 24.6989C41.5704 24.626 41.0966 24.433 40.6886 24.1364C40.2807 23.8398 39.9509 23.4486 39.7275 22.9964L33.9764 11.3447Z" fill="url(#paint0_linear_631_675)"/>
<defs>
<linearGradient id="paint0_linear_631_675" x1="110.32" y1="-66.0975" x2="-68.0627" y2="-44.5431" gradientUnits="userSpaceOnUse">
<stop offset="0.147291" stop-color="#FFBE41"/>
<stop offset="0.911106" stop-color="#E77D43"/>
</linearGradient>
</defs>
</svg>
